<svg width="120" height="28" viewBox="0 0 120 28" fill="none" xmlns="http://www.w3.org/2000/svg">
<rect width="120" height="28" fill="#505050"/>
<path d="M10.0781 18V9.46875H12.4629C13.1621 9.46875 13.7891 9.62891 14.3438 9.94922C14.8984 10.2656 15.3301 10.7207 15.6387 11.3145C15.9512 11.9082 16.1074 12.584 16.1074 13.3418V14.127C16.1074 14.8887 15.9531 15.5645 15.6445 16.1543C15.3359 16.7441 14.9004 17.1992 14.3379 17.5195C13.7793 17.8398 13.1367 18 12.4102 18H10.0781ZM10.7988 10.084V17.3906H12.416C13.3145 17.3906 14.0352 17.0938 14.5781 16.5C15.1211 15.9023 15.3926 15.0957 15.3926 14.0801V13.3301C15.3926 12.3496 15.125 11.5645 14.5898 10.9746C14.0547 10.3848 13.3496 10.0879 12.4746 10.084H10.7988ZM18.5625 18H17.8594V11.6602H18.5625V18ZM17.7363 9.82617C17.7363 9.69336 17.7793 9.58203 17.8652 9.49219C17.9512 9.39844 18.0684 9.35156 18.2168 9.35156C18.3652 9.35156 18.4824 9.39844 18.5684 9.49219C18.6582 9.58203 18.7031 9.69336 18.7031 9.82617C18.7031 9.95898 18.6582 10.0703 18.5684 10.1602C18.4824 10.25 18.3652 10.2949 18.2168 10.2949C18.0684 10.2949 17.9512 10.25 17.8652 10.1602C17.7793 10.0703 17.7363 9.95898 17.7363 9.82617ZM24.2695 16.3887C24.2695 16.041 24.1289 15.7617 23.8477 15.5508C23.5703 15.3398 23.1504 15.1758 22.5879 15.0586C22.0254 14.9375 21.5879 14.8008 21.2754 14.6484C20.9668 14.4922 20.7363 14.3027 20.584 14.0801C20.4355 13.8574 20.3613 13.5879 20.3613 13.2715C20.3613 12.7715 20.5703 12.3594 20.9883 12.0352C21.4062 11.707 21.9414 11.543 22.5938 11.543C23.3008 11.543 23.8672 11.7188 24.293 12.0703C24.7227 12.418 24.9375 12.873 24.9375 13.4355H24.2344C24.2344 13.0645 24.0781 12.7559 23.7656 12.5098C23.457 12.2637 23.0664 12.1406 22.5938 12.1406C22.1328 12.1406 21.7617 12.2441 21.4805 12.4512C21.2031 12.6543 21.0645 12.9199 21.0645 13.248C21.0645 13.5645 21.1797 13.8105 21.4102 13.9863C21.6445 14.1582 22.0684 14.3164 22.6816 14.4609C23.2988 14.6055 23.7598 14.7598 24.0645 14.9238C24.373 15.0879 24.6016 15.2852 24.75 15.5156C24.8984 15.7461 24.9727 16.0254 24.9727 16.3535C24.9727 16.8887 24.7559 17.3164 24.3223 17.6367C23.8926 17.957 23.3301 18.1172 22.6348 18.1172C21.8965 18.1172 21.2969 17.9395 20.8359 17.584C20.3789 17.2246 20.1504 16.7715 20.1504 16.2246H20.8535C20.8809 16.6348 21.0527 16.9551 21.3691 17.1855C21.6895 17.4121 22.1113 17.5254 22.6348 17.5254C23.123 17.5254 23.5176 17.418 23.8184 17.2031C24.1191 16.9883 24.2695 16.7168 24.2695 16.3887ZM28.8984 17.5254C29.3867 17.5254 29.7949 17.3887 30.123 17.1152C30.4551 16.8379 30.6348 16.4805 30.6621 16.043H31.3359C31.3164 16.4297 31.1953 16.7832 30.9727 17.1035C30.75 17.4199 30.4531 17.668 30.082 17.8477C29.7148 18.0273 29.3203 18.1172 28.8984 18.1172C28.0664 18.1172 27.4062 17.8281 26.918 17.25C26.4336 16.6719 26.1914 15.8945 26.1914 14.918V14.707C26.1914 14.082 26.3008 13.5293 26.5195 13.0488C26.7383 12.5684 27.0508 12.1973 27.457 11.9355C27.8672 11.6738 28.3457 11.543 28.8926 11.543C29.5879 11.543 30.1602 11.75 30.6094 12.1641C31.0625 12.5781 31.3047 13.123 31.3359 13.7988H30.6621C30.6309 13.3027 30.4512 12.9023 30.123 12.5977C29.7988 12.293 29.3887 12.1406 28.8926 12.1406C28.2598 12.1406 27.7676 12.3691 27.416 12.8262C27.0684 13.2832 26.8945 13.9238 26.8945 14.748V14.9531C26.8945 15.7617 27.0684 16.3926 27.416 16.8457C27.7676 17.2988 28.2617 17.5254 28.8984 17.5254ZM32.3555 14.7363C32.3555 14.127 32.4727 13.5781 32.707 13.0898C32.9453 12.6016 33.2793 12.2227 33.709 11.9531C34.1426 11.6797 34.6328 11.543 35.1797 11.543C36.0234 11.543 36.707 11.8398 37.2305 12.4336C37.7539 13.0234 38.0156 13.8066 38.0156 14.7832V14.9297C38.0156 15.543 37.8965 16.0957 37.6582 16.5879C37.4238 17.0762 37.0918 17.4531 36.6621 17.7188C36.2324 17.9844 35.7422 18.1172 35.1914 18.1172C34.3516 18.1172 33.668 17.8223 33.1406 17.2324C32.6172 16.6387 32.3555 15.8535 32.3555 14.877V14.7363ZM33.0586 14.9297C33.0586 15.6875 33.2539 16.3105 33.6445 16.7988C34.0391 17.2832 34.5547 17.5254 35.1914 17.5254C35.8242 17.5254 36.3359 17.2832 36.7266 16.7988C37.1211 16.3105 37.3184 15.668 37.3184 14.8711V14.7363C37.3184 14.252 37.2285 13.8086 37.0488 13.4062C36.8691 13.0039 36.6172 12.6934 36.293 12.4746C35.9688 12.252 35.5977 12.1406 35.1797 12.1406C34.5547 12.1406 34.0449 12.3867 33.6504 12.8789C33.2559 13.3672 33.0586 14.0078 33.0586 14.8008V14.9297ZM42.3984 12.2578C42.25 12.2305 42.0918 12.2168 41.9238 12.2168C41.4863 12.2168 41.1152 12.3398 40.8105 12.5859C40.5098 12.8281 40.2949 13.1816 40.166 13.6465V18H39.4688V11.6602H40.1543L40.166 12.668C40.5371 11.918 41.1328 11.543 41.9531 11.543C42.1484 11.543 42.3027 11.5684 42.416 11.6191L42.3984 12.2578ZM43.1133 14.7715C43.1133 13.7871 43.332 13.0039 43.7695 12.4219C44.2109 11.8359 44.8086 11.543 45.5625 11.543C46.418 11.543 47.0703 11.8809 47.5195 12.5566V9H48.2168V18H47.5605L47.5312 17.1562C47.082 17.7969 46.4219 18.1172 45.5508 18.1172C44.8203 18.1172 44.2305 17.8242 43.7812 17.2383C43.3359 16.6484 43.1133 15.8535 43.1133 14.8535V14.7715ZM43.8223 14.8945C43.8223 15.7031 43.9844 16.3418 44.3086 16.8105C44.6328 17.2754 45.0898 17.5078 45.6797 17.5078C46.543 17.5078 47.1562 17.127 47.5195 16.3652V13.3887C47.1562 12.5645 46.5469 12.1523 45.6914 12.1523C45.1016 12.1523 44.6426 12.3848 44.3145 12.8496C43.9863 13.3105 43.8223 13.9922 43.8223 14.8945Z" fill="white"/>
<rect x="59" width="61" height="28" fill="#7289DA"/>
<path d="M83.377 15.2227C83.291 16.1328 82.9551 16.8438 82.3691 17.3555C81.7832 17.8633 81.0039 18.1172 80.0312 18.1172C79.3516 18.1172 78.752 17.957 78.2324 17.6367C77.7168 17.3125 77.3184 16.8535 77.0371 16.2598C76.7559 15.666 76.6094 14.9766 76.5977 14.1914V13.3945C76.5977 12.5898 76.7402 11.8809 77.0254 11.2676C77.3105 10.6543 77.7188 10.1816 78.25 9.84961C78.7852 9.51758 79.4023 9.35156 80.1016 9.35156C81.043 9.35156 81.8008 9.60742 82.375 10.1191C82.9492 10.6309 83.2832 11.3535 83.377 12.2871H81.9004C81.8301 11.6738 81.6504 11.2324 81.3613 10.9629C81.0762 10.6895 80.6562 10.5527 80.1016 10.5527C79.457 10.5527 78.9609 10.7891 78.6133 11.2617C78.2695 11.7305 78.0938 12.4199 78.0859 13.3301V14.0859C78.0859 15.0078 78.25 15.7109 78.5781 16.1953C78.9102 16.6797 79.3945 16.9219 80.0312 16.9219C80.6133 16.9219 81.0508 16.791 81.3438 16.5293C81.6367 16.2676 81.8223 15.832 81.9004 15.2227H83.377ZM85.9727 12.3516C86.4375 11.8125 87.0254 11.543 87.7363 11.543C89.0879 11.543 89.7734 12.3145 89.793 13.8574V18H88.3691V13.9102C88.3691 13.4727 88.2734 13.1641 88.082 12.9844C87.8945 12.8008 87.6172 12.709 87.25 12.709C86.6797 12.709 86.2539 12.9629 85.9727 13.4707V18H84.5488V9H85.9727V12.3516ZM92.752 18H91.3281V11.6602H92.752V18ZM91.2402 10.0137C91.2402 9.79492 91.3086 9.61328 91.4453 9.46875C91.5859 9.32422 91.7852 9.25195 92.043 9.25195C92.3008 9.25195 92.5 9.32422 92.6406 9.46875C92.7812 9.61328 92.8516 9.79492 92.8516 10.0137C92.8516 10.2285 92.7812 10.4082 92.6406 10.5527C92.5 10.6934 92.3008 10.7637 92.043 10.7637C91.7852 10.7637 91.5859 10.6934 91.4453 10.5527C91.3086 10.4082 91.2402 10.2285 91.2402 10.0137ZM97.627 12.9609C97.4395 12.9297 97.2461 12.9141 97.0469 12.9141C96.3945 12.9141 95.9551 13.1641 95.7285 13.6641V18H94.3047V11.6602H95.6641L95.6992 12.3691C96.043 11.8184 96.5195 11.543 97.1289 11.543C97.332 11.543 97.5 11.5703 97.6328 11.625L97.627 12.9609ZM104.078 14.8945C104.078 15.875 103.855 16.6582 103.41 17.2441C102.965 17.8262 102.367 18.1172 101.617 18.1172C100.922 18.1172 100.365 17.8887 99.9473 17.4316V20.4375H98.5234V11.6602H99.8359L99.8945 12.3047C100.312 11.7969 100.881 11.543 101.6 11.543C102.373 11.543 102.979 11.832 103.416 12.4102C103.857 12.9844 104.078 13.7832 104.078 14.8066V14.8945ZM102.66 14.7715C102.66 14.1387 102.533 13.6367 102.279 13.2656C102.029 12.8945 101.67 12.709 101.201 12.709C100.619 12.709 100.201 12.9492 99.9473 13.4297V16.2422C100.205 16.7344 100.627 16.9805 101.213 16.9805C101.666 16.9805 102.02 16.7988 102.273 16.4355C102.531 16.0684 102.66 15.5137 102.66 14.7715Z" fill="white"/>
</svg>
